<svg width="171" height="54" viewBox="0 0 171 54" fill="none" xmlns="http://www.w3.org/2000/svg">
<rect x="0.5" y="0.5" width="170" height="53" rx="9.5" fill="white"/>
<path d="M39 26C41.2091 26 43 24.2091 43 22C43 19.7909 41.2091 18 39 18C36.7909 18 35 19.7909 35 22C35 24.2091 36.7909 26 39 26Z" stroke="#202142" stroke-width="1.5" stroke-linecap="round" stroke-linejoin="round"/>
<path d="M33 36V34C33 32.9391 33.4214 31.9217 34.1716 31.1716C34.9217 30.4214 35.9391 30 37 30H41C42.0609 30 43.0783 30.4214 43.8284 31.1716C44.5786 31.9217 45 32.9391 45 34V36" stroke="#202142" stroke-width="1.5" stroke-linecap="round" stroke-linejoin="round"/>
<path d="M49 23V29M46 26H52H46Z" stroke="#202142" stroke-width="1.5" stroke-linecap="round" stroke-linejoin="round"/>
<path d="M68.864 33.112C68.1173 33.112 67.4453 32.984 66.848 32.728C66.2507 32.4613 65.7813 32.088 65.44 31.608C65.0987 31.128 64.928 30.568 64.928 29.928H66.88C66.9227 30.408 67.1093 30.8027 67.44 31.112C67.7813 31.4213 68.256 31.576 68.864 31.576C69.4933 31.576 69.984 31.4267 70.336 31.128C70.688 30.8187 70.864 30.424 70.864 29.944C70.864 29.5707 70.752 29.2667 70.528 29.032C70.3147 28.7973 70.0427 28.616 69.712 28.488C69.392 28.36 68.944 28.2213 68.368 28.072C67.6427 27.88 67.0507 27.688 66.592 27.496C66.144 27.2933 65.76 26.984 65.44 26.568C65.12 26.152 64.96 25.5973 64.96 24.904C64.96 24.264 65.12 23.704 65.44 23.224C65.76 22.744 66.208 22.376 66.784 22.12C67.36 21.864 68.0267 21.736 68.784 21.736C69.8613 21.736 70.7413 22.008 71.424 22.552C72.1173 23.0853 72.5013 23.8213 72.576 24.76H70.56C70.528 24.3547 70.336 24.008 69.984 23.72C69.632 23.432 69.168 23.288 68.592 23.288C68.0693 23.288 67.6427 23.4213 67.312 23.688C66.9813 23.9547 66.816 24.3387 66.816 24.84C66.816 25.1813 66.9173 25.464 67.12 25.688C67.3333 25.9013 67.6 26.072 67.92 26.2C68.24 26.328 68.6773 26.4667 69.232 26.616C69.968 26.8187 70.5653 27.0213 71.024 27.224C71.4933 27.4267 71.888 27.7413 72.208 28.168C72.5387 28.584 72.704 29.144 72.704 29.848C72.704 30.4133 72.5493 30.9467 72.24 31.448C71.9413 31.9493 71.4987 32.3547 70.912 32.664C70.336 32.9627 69.6533 33.112 68.864 33.112ZM82.9363 28.376C82.9363 28.7067 82.9149 29.0053 82.8723 29.272H76.1363C76.1896 29.976 76.4509 30.5413 76.9203 30.968C77.3896 31.3947 77.9656 31.608 78.6483 31.608C79.6296 31.608 80.3229 31.1973 80.7283 30.376H82.6962C82.4296 31.1867 81.9443 31.8533 81.2403 32.376C80.5469 32.888 79.6829 33.144 78.6483 33.144C77.8056 33.144 77.0483 32.9573 76.3763 32.584C75.7149 32.2 75.1923 31.6667 74.8083 30.984C74.4349 30.2907 74.2483 29.4907 74.2483 28.584C74.2483 27.6773 74.4296 26.8827 74.7923 26.2C75.1656 25.5067 75.6829 24.9733 76.3443 24.6C77.0163 24.2267 77.7843 24.04 78.6483 24.04C79.4803 24.04 80.2216 24.2213 80.8723 24.584C81.5229 24.9467 82.0296 25.4587 82.3923 26.12C82.7549 26.7707 82.9363 27.5227 82.9363 28.376ZM81.0323 27.8C81.0216 27.128 80.7816 26.5893 80.3123 26.184C79.8429 25.7787 79.2616 25.576 78.5683 25.576C77.9389 25.576 77.4003 25.7787 76.9523 26.184C76.5043 26.5787 76.2376 27.1173 76.1523 27.8H81.0323ZM88.2833 24.04C88.9659 24.04 89.5686 24.1787 90.0913 24.456C90.6246 24.7227 91.0406 25.0587 91.3393 25.464V24.184H93.1793V33.144C93.1793 33.9547 93.0086 34.6747 92.6673 35.304C92.3259 35.944 91.8299 36.4453 91.1793 36.808C90.5393 37.1707 89.7713 37.352 88.8753 37.352C87.6806 37.352 86.6886 37.0693 85.8993 36.504C85.1099 35.9493 84.6619 35.192 84.5553 34.232H86.3633C86.5019 34.6907 86.7953 35.0587 87.2433 35.336C87.7019 35.624 88.2459 35.768 88.8753 35.768C89.6113 35.768 90.2033 35.544 90.6513 35.096C91.1099 34.648 91.3393 33.9973 91.3393 33.144V31.672C91.0299 32.088 90.6086 32.44 90.0753 32.728C89.5526 33.0053 88.9553 33.144 88.2833 33.144C87.5153 33.144 86.8113 32.952 86.1713 32.568C85.5419 32.1733 85.0406 31.6293 84.6673 30.936C84.3046 30.232 84.1233 29.4373 84.1233 28.552C84.1233 27.6667 84.3046 26.8827 84.6673 26.2C85.0406 25.5173 85.5419 24.9893 86.1713 24.616C86.8113 24.232 87.5153 24.04 88.2833 24.04ZM91.3393 28.584C91.3393 27.976 91.2113 27.448 90.9553 27C90.7099 26.552 90.3846 26.2107 89.9793 25.976C89.5739 25.7413 89.1366 25.624 88.6673 25.624C88.1979 25.624 87.7606 25.7413 87.3553 25.976C86.9499 26.2 86.6193 26.536 86.3633 26.984C86.1179 27.4213 85.9953 27.944 85.9953 28.552C85.9953 29.16 86.1179 29.6933 86.3633 30.152C86.6193 30.6107 86.9499 30.9627 87.3553 31.208C87.7713 31.4427 88.2086 31.56 88.6673 31.56C89.1366 31.56 89.5739 31.4427 89.9793 31.208C90.3846 30.9733 90.7099 30.632 90.9553 30.184C91.2113 29.7253 91.3393 29.192 91.3393 28.584ZM103.559 24.184V33H101.735V31.96C101.447 32.3227 101.068 32.6107 100.599 32.824C100.14 33.0267 99.6497 33.128 99.127 33.128C98.4337 33.128 97.8097 32.984 97.255 32.696C96.711 32.408 96.279 31.9813 95.959 31.416C95.6497 30.8507 95.495 30.168 95.495 29.368V24.184H97.303V29.096C97.303 29.8853 97.5003 30.4933 97.895 30.92C98.2897 31.336 98.8283 31.544 99.511 31.544C100.194 31.544 100.732 31.336 101.127 30.92C101.532 30.4933 101.735 29.8853 101.735 29.096V24.184H103.559ZM106.894 23.016C106.563 23.016 106.286 22.904 106.062 22.68C105.838 22.456 105.726 22.1787 105.726 21.848C105.726 21.5173 105.838 21.24 106.062 21.016C106.286 20.792 106.563 20.68 106.894 20.68C107.214 20.68 107.486 20.792 107.71 21.016C107.934 21.24 108.046 21.5173 108.046 21.848C108.046 22.1787 107.934 22.456 107.71 22.68C107.486 22.904 107.214 23.016 106.894 23.016ZM107.79 24.184V33H105.966V24.184H107.79ZM114.632 24.04C115.326 24.04 115.944 24.184 116.488 24.472C117.043 24.76 117.475 25.1867 117.784 25.752C118.094 26.3173 118.248 27 118.248 27.8V33H116.44V28.072C116.44 27.2827 116.243 26.68 115.848 26.264C115.454 25.8373 114.915 25.624 114.232 25.624C113.55 25.624 113.006 25.8373 112.6 26.264C112.206 26.68 112.008 27.2827 112.008 28.072V33H110.184V24.184H112.008V25.192C112.307 24.8293 112.686 24.5467 113.144 24.344C113.614 24.1413 114.11 24.04 114.632 24.04ZM119.967 28.552C119.967 27.6667 120.148 26.8827 120.511 26.2C120.884 25.5173 121.386 24.9893 122.015 24.616C122.655 24.232 123.364 24.04 124.143 24.04C124.719 24.04 125.284 24.168 125.839 24.424C126.404 24.6693 126.852 25 127.183 25.416V21.16H129.023V33H127.183V31.672C126.884 32.0987 126.468 32.4507 125.935 32.728C125.412 33.0053 124.81 33.144 124.127 33.144C123.359 33.144 122.655 32.952 122.015 32.568C121.386 32.1733 120.884 31.6293 120.511 30.936C120.148 30.232 119.967 29.4373 119.967 28.552ZM127.183 28.584C127.183 27.976 127.055 27.448 126.799 27C126.554 26.552 126.228 26.2107 125.823 25.976C125.418 25.7413 124.98 25.624 124.511 25.624C124.042 25.624 123.604 25.7413 123.199 25.976C122.794 26.2 122.463 26.536 122.207 26.984C121.962 27.4213 121.839 27.944 121.839 28.552C121.839 29.16 121.962 29.6933 122.207 30.152C122.463 30.6107 122.794 30.9627 123.199 31.208C123.615 31.4427 124.052 31.56 124.511 31.56C124.98 31.56 125.418 31.4427 125.823 31.208C126.228 30.9733 126.554 30.632 126.799 30.184C127.055 29.7253 127.183 29.192 127.183 28.584ZM135.243 33.144C134.411 33.144 133.659 32.9573 132.987 32.584C132.315 32.2 131.787 31.6667 131.403 30.984C131.019 30.2907 130.827 29.4907 130.827 28.584C130.827 27.688 131.024 26.8933 131.419 26.2C131.813 25.5067 132.352 24.9733 133.035 24.6C133.717 24.2267 134.48 24.04 135.323 24.04C136.165 24.04 136.928 24.2267 137.611 24.6C138.293 24.9733 138.832 25.5067 139.227 26.2C139.621 26.8933 139.819 27.688 139.819 28.584C139.819 29.48 139.616 30.2747 139.211 30.968C138.805 31.6613 138.251 32.2 137.547 32.584C136.853 32.9573 136.085 33.144 135.243 33.144ZM135.243 31.56C135.712 31.56 136.149 31.448 136.555 31.224C136.971 31 137.307 30.664 137.563 30.216C137.819 29.768 137.947 29.224 137.947 28.584C137.947 27.944 137.824 27.4053 137.579 26.968C137.333 26.52 137.008 26.184 136.603 25.96C136.197 25.736 135.76 25.624 135.291 25.624C134.821 25.624 134.384 25.736 133.979 25.96C133.584 26.184 133.269 26.52 133.035 26.968C132.8 27.4053 132.683 27.944 132.683 28.584C132.683 29.5333 132.923 30.2693 133.403 30.792C133.893 31.304 134.507 31.56 135.243 31.56Z" fill="#202142"/>
<rect x="0.5" y="0.5" width="170" height="53" rx="9.5" stroke="#A4A4CB"/>
</svg>
